<?xml version="1.0" encoding="utf-8"?>
<!-- Generator: Adobe Illustrator 21.1.0, SVG Export Plug-In . SVG Version: 6.00 Build 0)  -->
<svg version="1.1" id="Layer_1" xmlns="http://www.w3.org/2000/svg" xmlns:xlink="http://www.w3.org/1999/xlink" x="0px" y="0px"
	 viewBox="0 0 250 88.7" style="enable-background:new 0 0 250 88.7;" xml:space="preserve">
<style type="text/css">
	.st0{fill:#231F20;}
	.st1{fill:#29ABE2;}
	.st2{fill:#414142;}
</style>
<path class="st0" d="M132.3,288.7l-1.1-3.8c0.1,0.4,0.3,0.8,0.4,1.2c0.1,0.3,0.2,0.7,0.4,1c0.2,0.5,0.4,1,0.6,1.5L132.3,288.7z"/>
<g>
	<g>
		<path class="st1" d="M101.2,44.3c-0.4,0.9-1,1.6-1.8,2.2c-0.7,0.6-1.6,1-2.6,1.3c-1,0.3-2.1,0.5-3.2,0.5h-4.1v6.6h-3.6V34.3H94
			c1.2,0,2.3,0.2,3.2,0.5c1,0.3,1.8,0.8,2.5,1.4c0.7,0.6,1.2,1.3,1.6,2.2c0.4,0.8,0.5,1.8,0.5,2.8C101.8,42.4,101.6,43.4,101.2,44.3
			z M97,38.5c-0.8-0.6-1.9-0.9-3.2-0.9h-4.2V45h4.2c1.4,0,2.5-0.3,3.3-1c0.8-0.7,1.2-1.6,1.2-2.7C98.2,40.1,97.8,39.1,97,38.5z"/>
		<path class="st1" d="M105.2,37v-3.4h3.8V37H105.2z M105.3,54.9V39.4h3.6v15.5H105.3z"/>
		<path class="st1" d="M117.8,50c0,0.7,0.2,1.2,0.5,1.5c0.3,0.3,0.8,0.5,1.4,0.5c0.8,0,1.5-0.2,2.2-0.5v2.9
			c-0.5,0.3-0.9,0.5-1.4,0.6c-0.5,0.1-1.1,0.2-1.8,0.2c-0.6,0-1.2-0.1-1.8-0.2s-1-0.4-1.4-0.8c-0.4-0.4-0.7-0.8-0.9-1.4
			c-0.2-0.6-0.3-1.3-0.3-2.2v-8.2h-2v-3h2v-4.2h3.6v4.2h4.2v3h-4.2V50z"/>
		<path class="st1" d="M136,54.4c-1,0.5-2.2,0.8-3.7,0.8c-1.2,0-2.2-0.2-3.2-0.6c-1-0.4-1.8-1-2.5-1.7c-0.7-0.7-1.3-1.6-1.7-2.5
			c-0.4-1-0.6-2-0.6-3.1c0-1.1,0.2-2.2,0.6-3.1c0.4-1,1-1.8,1.7-2.6c0.7-0.7,1.6-1.3,2.6-1.8c1-0.4,2.1-0.6,3.2-0.6
			c1.5,0,2.7,0.2,3.6,0.7c1,0.5,1.8,1.1,2.5,1.9l-2.2,2.4c-0.5-0.6-1.1-1-1.7-1.4c-0.6-0.4-1.4-0.5-2.3-0.5c-0.6,0-1.2,0.1-1.8,0.4
			c-0.5,0.3-1,0.6-1.4,1.1c-0.4,0.4-0.7,1-0.9,1.6c-0.2,0.6-0.3,1.2-0.3,1.9c0,0.7,0.1,1.4,0.3,2c0.2,0.6,0.5,1.1,1,1.6
			c0.4,0.4,0.9,0.8,1.5,1.1c0.6,0.3,1.2,0.4,1.9,0.4c0.8,0,1.6-0.2,2.2-0.5c0.6-0.4,1.2-0.8,1.8-1.4l2.1,2.1
			C137.8,53.2,136.9,53.9,136,54.4z"/>
		<path class="st1" d="M145.4,54.9h-3.6V33.5h3.6v8.3c0.3-0.4,0.5-0.7,0.8-1c0.3-0.3,0.7-0.6,1.1-0.9c0.4-0.3,0.8-0.5,1.3-0.6
			c0.5-0.1,1-0.2,1.6-0.2c1.8,0,3.1,0.5,4.1,1.6c1,1.1,1.4,2.5,1.4,4.3v9.8h-3.6v-8.8c0-1.2-0.3-2.1-0.9-2.8c-0.6-0.7-1.4-1-2.4-1
			c-1,0-1.9,0.3-2.5,1c-0.6,0.7-1,1.6-1,2.8V54.9z"/>
		<path class="st2" d="M172.1,34.7c0.8,0.2,1.5,0.6,2.1,1c0.6,0.4,1,1,1.3,1.6c0.3,0.6,0.5,1.3,0.5,2.1c0,0.7-0.1,1.3-0.3,1.8
			c-0.2,0.5-0.4,1-0.7,1.3c-0.3,0.4-0.7,0.7-1,1c-0.4,0.3-0.8,0.5-1.2,0.7c0.6,0.2,1.2,0.4,1.7,0.7c0.5,0.3,1,0.6,1.4,1
			c0.4,0.4,0.7,0.9,0.9,1.4c0.2,0.5,0.3,1.2,0.3,1.9c0,0.9-0.2,1.7-0.5,2.4c-0.4,0.7-0.9,1.3-1.5,1.8c-0.7,0.5-1.4,0.8-2.4,1.1
			c-0.9,0.3-1.9,0.4-3,0.4h-9.1V34.3h8.7C170.4,34.3,171.3,34.5,172.1,34.7z M172.4,42.5c0.9-0.6,1.3-1.5,1.3-2.8
			c0-1-0.4-1.9-1.2-2.5c-0.8-0.6-1.9-0.9-3.4-0.9H163v7.1h6C170.4,43.5,171.5,43.2,172.4,42.5z M173.5,51.8c0.9-0.6,1.3-1.6,1.3-2.7
			c0-1.1-0.5-2-1.4-2.6c-0.9-0.6-2.3-0.9-4.1-0.9H163v7.3h6.9C171.4,52.8,172.6,52.5,173.5,51.8z"/>
		<path class="st2" d="M195.7,50.3c-0.4,1-1,1.8-1.7,2.5c-0.7,0.7-1.5,1.3-2.5,1.7c-1,0.4-2,0.6-3.2,0.6c-1.1,0-2.2-0.2-3.1-0.6
			c-1-0.4-1.8-1-2.5-1.7c-0.7-0.7-1.2-1.5-1.6-2.5c-0.4-1-0.6-2-0.6-3c0-1.1,0.2-2.1,0.6-3.1c0.4-1,0.9-1.8,1.6-2.5
			c0.7-0.7,1.5-1.3,2.5-1.7c1-0.4,2-0.6,3.2-0.6c1.1,0,2.2,0.2,3.2,0.6c1,0.4,1.8,1,2.5,1.7c0.7,0.7,1.3,1.5,1.6,2.5
			c0.4,1,0.6,2,0.6,3C196.3,48.3,196.1,49.4,195.7,50.3z M193.5,45c-0.3-0.7-0.7-1.3-1.2-1.9c-0.5-0.5-1.1-1-1.8-1.3
			c-0.7-0.3-1.4-0.5-2.2-0.5c-0.8,0-1.6,0.2-2.3,0.5c-0.7,0.3-1.3,0.7-1.7,1.3c-0.5,0.5-0.9,1.2-1.1,1.9c-0.3,0.7-0.4,1.5-0.4,2.3
			c0,0.8,0.1,1.6,0.4,2.3c0.3,0.7,0.7,1.3,1.2,1.9c0.5,0.5,1.1,0.9,1.8,1.3c0.7,0.3,1.4,0.5,2.2,0.5c0.8,0,1.6-0.1,2.3-0.5
			c0.7-0.3,1.3-0.7,1.8-1.2c0.5-0.5,0.9-1.1,1.1-1.9c0.3-0.7,0.4-1.5,0.4-2.3C194,46.5,193.8,45.7,193.5,45z"/>
		<path class="st2" d="M203.4,41.8c-0.7,0.2-1.5,0.5-2.2,0.8l-0.7-1.8c0.8-0.4,1.7-0.7,2.5-0.9c0.9-0.2,1.8-0.3,3-0.3
			c2.1,0,3.7,0.5,4.8,1.5c1.1,1,1.7,2.5,1.7,4.6v9.3h-2.2v-2.3c-0.5,0.7-1.2,1.3-2.1,1.8c-0.9,0.5-2,0.8-3.4,0.8
			c-0.7,0-1.4-0.1-2.1-0.3c-0.7-0.2-1.3-0.5-1.8-0.9c-0.5-0.4-1-0.9-1.3-1.5c-0.3-0.6-0.5-1.3-0.5-2.1c0-0.8,0.2-1.5,0.5-2.1
			s0.8-1.1,1.3-1.5c0.6-0.4,1.3-0.7,2.1-0.9c0.8-0.2,1.7-0.3,2.6-0.3c1,0,1.8,0.1,2.5,0.2c0.7,0.1,1.4,0.3,2.1,0.5v-0.5
			c0-1.4-0.4-2.4-1.2-3.1c-0.8-0.7-1.9-1-3.3-1C204.9,41.5,204.1,41.6,203.4,41.8z M202.7,48c-0.8,0.6-1.1,1.3-1.1,2.3
			c0,0.5,0.1,0.9,0.3,1.3c0.2,0.4,0.5,0.7,0.8,1c0.4,0.3,0.8,0.5,1.2,0.6c0.5,0.1,0.9,0.2,1.4,0.2c0.7,0,1.4-0.1,2-0.3
			c0.6-0.2,1.2-0.5,1.6-0.9c0.5-0.4,0.8-0.8,1.1-1.3c0.3-0.5,0.4-1.1,0.4-1.7v-1.5c-0.6-0.2-1.2-0.3-1.9-0.4
			c-0.7-0.1-1.6-0.2-2.5-0.2C204.5,47.2,203.4,47.5,202.7,48z"/>
		<path class="st2" d="M219.6,54.9h-2.3V39.7h2.3v4c0.3-0.6,0.6-1.2,1-1.7c0.4-0.5,0.9-1,1.4-1.4c0.5-0.4,1.1-0.7,1.7-0.9
			c0.6-0.2,1.3-0.3,2-0.3v2.4h-0.2c-0.8,0-1.6,0.1-2.3,0.4c-0.7,0.3-1.4,0.7-1.9,1.3c-0.5,0.6-1,1.3-1.3,2.2c-0.3,0.9-0.5,1.9-0.5,3
			V54.9z"/>
		<path class="st2" d="M240.7,54.9v-3c-0.3,0.4-0.7,0.9-1,1.3c-0.4,0.4-0.8,0.8-1.3,1.1c-0.5,0.3-1,0.6-1.6,0.7
			c-0.6,0.2-1.2,0.3-1.9,0.3c-0.9,0-1.8-0.2-2.7-0.5c-0.9-0.3-1.6-0.9-2.3-1.5c-0.7-0.7-1.2-1.5-1.6-2.5c-0.4-1-0.6-2.1-0.6-3.3
			c0-1.2,0.2-2.4,0.6-3.3c0.4-1,1-1.8,1.6-2.5c0.7-0.7,1.5-1.2,2.3-1.6c0.9-0.4,1.7-0.5,2.7-0.5c0.7,0,1.3,0.1,1.9,0.3
			c0.6,0.2,1.1,0.4,1.6,0.7c0.5,0.3,0.9,0.6,1.3,1c0.4,0.4,0.7,0.8,1,1.2v-9.1h2.3v21.4H240.7z M240.4,44.9
			c-0.3-0.7-0.7-1.3-1.2-1.8c-0.5-0.5-1.1-0.9-1.8-1.2c-0.7-0.3-1.3-0.4-2-0.4c-0.7,0-1.4,0.1-2.1,0.4c-0.6,0.3-1.2,0.6-1.7,1.1
			c-0.5,0.5-0.9,1.1-1.1,1.8c-0.3,0.7-0.4,1.6-0.4,2.5c0,0.9,0.1,1.7,0.4,2.4c0.3,0.7,0.7,1.3,1.2,1.9c0.5,0.5,1.1,0.9,1.7,1.2
			c0.6,0.3,1.3,0.4,2.1,0.4c0.7,0,1.4-0.1,2-0.4c0.7-0.3,1.2-0.7,1.8-1.2c0.5-0.5,0.9-1.1,1.2-1.9c0.3-0.7,0.5-1.5,0.5-2.4
			C240.8,46.4,240.7,45.6,240.4,44.9z"/>
	</g>
	<path class="st1" d="M69.8,30c-2.2-4.1-5.4-7.4-9.2-9.9c-0.6-0.4-1.1-0.7-1.7-1c-1.8-1-3.7-1.8-5.7-2.3c-0.6-0.2-1.3-0.3-1.9-0.5
		c-0.6-0.1-1.3-0.2-1.9-0.3c-1.3-0.2-2.6-0.3-3.9-0.3c-0.3,0-0.7,0-1,0c-0.3,0-0.7,0-1,0c-0.3,0-0.5,0-0.8,0.1c-0.1,0-0.2,0-0.3,0
		c-0.3,0-0.5,0.1-0.8,0.1c0,0,0,0-0.1,0c-0.3,0-0.6,0.1-0.8,0.1c-1,0.2-1.9,0.4-2.9,0.7c-0.3,0.1-0.6,0.2-0.9,0.3
		c-0.2,0-0.3,0.1-0.5,0.2c-0.2,0.1-0.5,0.2-0.7,0.3c-2.1,0.8-4.2,1.9-6,3.2c-0.3,0.2-0.5,0.4-0.8,0.6c-0.3,0.2-0.6,0.4-0.9,0.7
		c-0.6,0.5-1.2,1-1.7,1.6l-3.4-9L7,20.4l9.2,24.2L9.1,69.6l16.2,4.7l2.7-9.3c0.4,0.3,0.7,0.6,1.1,0.9c0,0,0,0,0,0
		c0.4,0.3,0.7,0.5,1.1,0.8c0,0,0,0,0.1,0.1c0.4,0.3,0.8,0.5,1.2,0.7c0.4,0.2,0.8,0.5,1.2,0.7c0.4,0.2,0.8,0.4,1.3,0.6
		c0.4,0.2,0.8,0.3,1.1,0.5c0.1,0,0.2,0.1,0.2,0.1c0.4,0.2,0.8,0.3,1.2,0.4c0.4,0.2,0.9,0.3,1.4,0.4c0.6,0.2,1.3,0.3,1.9,0.5
		c1.9,0.4,3.9,0.6,5.8,0.6c8.8,0,17-4.3,22.2-11.1c0.3-0.4,0.7-0.9,1-1.4c0.3-0.5,0.6-0.9,0.9-1.4c0.4-0.7,0.8-1.5,1.2-2.2
		c0.2-0.5,0.5-1,0.7-1.6c0,0,0,0,0,0c0.3-0.8,0.6-1.6,0.8-2.4c0.3-1.2,0.6-2.4,0.8-3.6c0.1-0.4,0.1-0.8,0.2-1.2
		C73.7,40.7,72.6,35,69.8,30z M12.3,22.8l8-3l2.8,7.2v0c-0.2,0.2-0.3,0.4-0.4,0.6c-0.2,0.3-0.4,0.6-0.6,0.9c-0.2,0.3-0.4,0.6-0.6,1
		c-0.3,0.6-0.6,1.2-0.9,1.7c-0.1,0.2-0.2,0.4-0.3,0.7c-0.2,0.5-0.5,1-0.7,1.6c-0.1,0.3-0.3,0.7-0.4,1c-0.1,0.4-0.3,0.8-0.4,1.3
		c-0.2,0.8-0.4,1.7-0.6,2.5L18.1,38v0L12.3,22.8z M22.4,69.1l-8.2-2.4l8.6-29.8c0.4-1.3,0.9-2.6,1.5-3.9c0.2-0.4,0.4-0.9,0.7-1.3
		c5.3-9.3,16.4-14.1,27.1-11c10,2.9,16.6,11.7,17.1,21.6h-8.6c-0.5-6.1-4.7-11.6-10.9-13.3c-6.6-1.9-13.5,0.9-17,6.5
		c-0.7,1.2-1.3,2.4-1.7,3.8v0h0L22.4,69.1z M56,46.5c-1.3,4.7-5.7,8-10.5,8c-1,0-2-0.2-3-0.4c-2.3-0.7-4.3-2-5.7-3.9
		c-0.1-0.1-0.2-0.3-0.3-0.4c-0.2-0.3-0.4-0.6-0.6-0.9c-0.1-0.2-0.2-0.5-0.3-0.7L35,46.6c-0.6-1.9-0.6-3.9-0.1-5.8l0,0l0.2-0.6l0,0
		c0,0,0,0,0,0c0-0.1,0-0.1,0-0.2c0,0,0,0,0,0c0,0,0,0,0,0c0-0.1,0.1-0.2,0.1-0.3c0.1-0.3,0.2-0.6,0.3-0.8c0.1-0.2,0.2-0.4,0.3-0.6
		c0.1-0.1,0.1-0.2,0.2-0.3c0.1-0.2,0.3-0.4,0.4-0.6c0.3-0.5,0.7-0.9,1.1-1.4c0.2-0.2,0.4-0.4,0.6-0.6c0,0,0,0,0.1-0.1
		c0.2-0.2,0.4-0.3,0.6-0.5c0.5-0.3,1-0.6,1.5-0.9c0.5-0.3,1.1-0.5,1.6-0.7c0.2-0.1,0.5-0.2,0.7-0.2c0.1,0,0.2-0.1,0.3-0.1
		c0.2-0.1,0.5-0.1,0.7-0.1c0,0,0,0,0,0c0.3-0.1,0.6-0.1,0.9-0.1c0.3,0,0.6,0,0.9,0c1,0,2.1,0.1,3.1,0.4c2.8,0.8,5.2,2.7,6.6,5.2
		C56.5,40.7,56.9,43.7,56,46.5z M68.2,50C64.6,62.5,51.5,69.8,39,66.2c-3.8-1.1-7.1-3.1-9.8-5.6l2.9-10.2c1.8,3.6,5.1,6.4,9.2,7.6
		c8,2.3,16.4-2.3,18.7-10.3c0.1-0.4,0.2-0.8,0.3-1.2h8.7C68.8,47.6,68.6,48.8,68.2,50z"/>
</g>
</svg>
